<svg width="42" height="40" viewBox="0 0 42 40" fill="none" xmlns="http://www.w3.org/2000/svg">
<path d="M35.4832 1.99558H32.406C31.0095 1.99707 29.8779 3.01711 29.8762 4.27585V6.70941L22.821 0.662069C21.8052 -0.22069 20.1967 -0.22069 19.1809 0.662069L0.866098 16.3606C0.035758 17.0717 -0.226372 18.1688 0.205571 19.1249C0.594259 20.0545 1.58297 20.6684 2.68506 20.6644H3.2472V37.6663C3.26107 38.9656 4.4391 40.0096 5.88056 40H36.1194C37.5609 40.0096 38.7389 38.9656 38.7528 37.6663V20.6644H39.3149C40.417 20.6684 41.4057 20.0545 41.7944 19.1249C42.2264 18.1687 41.9642 17.0717 41.1339 16.3606L38.0131 13.685V4.27585C38.0113 3.01711 36.8797 1.99707 35.4832 1.99558ZM31.3557 4.27585C31.3565 3.75328 31.8263 3.3298 32.406 3.3291H35.4832C36.0629 3.3298 36.5327 3.75328 36.5335 4.27585V12.4168L31.3557 7.9776V4.27585ZM40.42 18.6309C40.25 19.0494 39.8093 19.3286 39.3149 19.3309H38.013C37.6044 19.3309 37.2733 19.6295 37.2733 19.9977V37.6663C37.2599 38.2293 36.744 38.6765 36.1194 38.6665H5.88047C5.25583 38.6765 4.73989 38.2293 4.72654 37.6663V19.9977C4.72654 19.6294 4.39532 19.3309 3.98687 19.3309H2.68498C2.19053 19.3286 1.74983 19.0494 1.57985 18.6309C1.37068 18.1812 1.4923 17.6618 1.88532 17.3267L20.2025 1.62288C20.645 1.22877 21.3569 1.22877 21.7994 1.62288L40.1151 17.3247C40.5087 17.6604 40.6301 18.1807 40.42 18.6309Z" fill="white"/>
</svg>
